/* XPM */
static char * C:\Users\lucas\Desktop\cub3d\brick_xpm[] = {
"50 30 243 2",
"  	c #512009",
". 	c #52200A",
"+ 	c #4E1F08",
"@ 	c #993D23",
"# 	c #983C22",
"$ 	c #92371D",
"% 	c #963B22",
"& 	c #933A21",
"* 	c #983B22",
"= 	c #953A21",
"- 	c #983D23",
"; 	c #943920",
"> 	c #943B22",
", 	c #8F3820",
"' 	c #973B21",
") 	c #963B20",
"! 	c #9A3D23",
"~ 	c #953B21",
"{ 	c #953C21",
"] 	c #933B21",
"^ 	c #973D24",
"/ 	c #9A3E24",
"( 	c #993D22",
"_ 	c #983D24",
": 	c #9C3F24",
"< 	c #9C3F25",
"[ 	c #983D22",
"} 	c #983E24",
"| 	c #993F25",
"1 	c #993E23",
"2 	c #993E24",
"3 	c #9B3F25",
"4 	c #9A3F24",
"5 	c #9A3D24",
"6 	c #9B3E24",
"7 	c #953C22",
"8 	c #9A3E25",
"9 	c #983C21",
"0 	c #953B22",
"a 	c #53210A",
"b 	c #54210A",
"c 	c #87341D",
"d 	c #9A3D22",
"e 	c #973C22",
"f 	c #95391F",
"g 	c #993B21",
"h 	c #973A20",
"i 	c #953A20",
"j 	c #92381E",
"k 	c #91371E",
"l 	c #923920",
"m 	c #973C23",
"n 	c #993F24",
"o 	c #933A22",
"p 	c #963C22",
"q 	c #993C22",
"r 	c #96391F",
"s 	c #993D24",
"t 	c #953D24",
"u 	c #923A21",
"v 	c #953D23",
"w 	c #973E24",
"x 	c #963B21",
"y 	c #9C4127",
"z 	c #943D23",
"A 	c #9C4126",
"B 	c #953C23",
"C 	c #973D23",
"D 	c #9B3E23",
"E 	c #4F1F09",
"F 	c #73240D",
"G 	c #822910",
"H 	c #7D270F",
"I 	c #7F280F",
"J 	c #812910",
"K 	c #7E280F",
"L 	c #802810",
"M 	c #802910",
"N 	c #7C270F",
"O 	c #7B270F",
"P 	c #76250D",
"Q 	c #77250E",
"R 	c #78250E",
"S 	c #7B270E",
"T 	c #812A11",
"U 	c #80280F",
"V 	c #852A11",
"W 	c #852A10",
"X 	c #832A11",
"Y 	c #842A10",
"Z 	c #832A10",
"` 	c #862A11",
" .	c #872B12",
"..	c #852B12",
"+.	c #862C12",
"@.	c #842B13",
"#.	c #882F17",
"$.	c #8A2F15",
"%.	c #8C3118",
"&.	c #8E351C",
"*.	c #9C3E24",
"=.	c #9C3E23",
"-.	c #522009",
";.	c #72230D",
">.	c #862B11",
",.	c #832910",
"'.	c #872B11",
").	c #80290F",
"!.	c #812810",
"~.	c #882D14",
"{.	c #8A3017",
"].	c #933920",
"^.	c #9B3C22",
"/.	c #501F09",
"(.	c #53200A",
"_.	c #81290F",
":.	c #842A11",
"<.	c #7E270F",
"[.	c #7F2810",
"}.	c #882C12",
"|.	c #94391F",
"1.	c #9A3C21",
"2.	c #55220A",
"3.	c #842910",
"4.	c #81280F",
"5.	c #7F270F",
"6.	c #8B2F15",
"7.	c #8F371E",
"8.	c #55210A",
"9.	c #54200A",
"0.	c #75240D",
"a.	c #8B321A",
"b.	c #97391F",
"c.	c #58230B",
"d.	c #59240B",
"e.	c #79270E",
"f.	c #91381F",
"g.	c #56220B",
"h.	c #7D280F",
"i.	c #7B260E",
"j.	c #7A260E",
"k.	c #82290F",
"l.	c #892D15",
"m.	c #903A21",
"n.	c #993C21",
"o.	c #852B11",
"p.	c #862A10",
"q.	c #56220A",
"r.	c #903920",
"s.	c #913B23",
"t.	c #7C260F",
"u.	c #963E25",
"v.	c #481C08",
"w.	c #90391F",
"x.	c #953D25",
"y.	c #4E1E08",
"z.	c #4D1D08",
"A.	c #913921",
"B.	c #903A22",
"C.	c #913920",
"D.	c #872D13",
"E.	c #91391F",
"F.	c #501F0A",
"G.	c #913B21",
"H.	c #8B361E",
"I.	c #4D1E09",
"J.	c #531F09",
"K.	c #90381F",
"L.	c #8B361D",
"M.	c #4D1C08",
"N.	c #8E381F",
"O.	c #943A21",
"P.	c #491C08",
"Q.	c #51200A",
"R.	c #55200A",
"S.	c #4A1C08",
"T.	c #4C1B08",
"U.	c #4C1D08",
"V.	c #4D1E08",
"W.	c #4C1E08",
"X.	c #822A12",
"Y.	c #933C23",
"Z.	c #511E09",
"`.	c #822C15",
" +	c #963C23",
".+	c #8D3921",
"++	c #5F230B",
"@+	c #822C13",
"#+	c #973E25",
"$+	c #501D09",
"%+	c #83290F",
"&+	c #8E341A",
"*+	c #923B22",
"=+	c #451A07",
"-+	c #54220A",
";+	c #862B12",
">+	c #8C3219",
",+	c #401806",
"'+	c #74240D",
")+	c #79260E",
"!+	c #862D14",
"~+	c #8B341C",
"{+	c #8F3A22",
"]+	c #4F1F08",
"^+	c #5C260C",
"/+	c #5C250C",
"(+	c #6B290E",
"_+	c #66210B",
":+	c #57210B",
"<+	c #57210A",
"[+	c #62240C",
"}+	c #5E250C",
"|+	c #5B240C",
"1+	c #4E1F09",
"2+	c #5B210A",
"3+	c #5E240C",
"4+	c #5A230C",
"5+	c #57230E",
"6+	c #4B1D08",
"7+	c #5F260C",
"8+	c #57230B",
"9+	c #5B230B",
"0+	c #652811",
"a+	c #57220B",
"b+	c #77311A",
"c+	c #78321B",
"d+	c #451A06",
"e+	c #511F09",
"f+	c #4D1D09",
"g+	c #481C07",
"h+	c #4B1C08",
"i+	c #411806",
"j+	c #54220B",
"k+	c #5A240C",
"l+	c #55210B",
"m+	c #54210B",
"n+	c #5E260D",
"o+	c #5B240E",
"p+	c #59240D",
"q+	c #461B07",
"r+	c #461A07",
"s+	c #4E1E09",
"t+	c #4F1E09",
"  . + @ # $ % & * = - ; > , ' ) ! @ ~ { ] ^ / - ( / _ @ : @ < [ } | 1 / 2 3 2 @ 4 ! 5 < 6 7 8 | 9 0 ",
"a b a c d e f g h i j k ! > * l > 2 9 ! m 7 n e o p _ q * r s e _ t u v w p @ x y > / z A B C C D 6 ",
"E a a F G G H I J K J L L M J J N O P Q R S T G U L V J W G X Y V Y Y V Z Y Y `  ...+.@.#.$.%.&.*.=.",
"-.b . ;.>.,.Y >.>.'.'.` >.Y ` J Y >.>.).!.Y >.>.>.` >.V Y G Z '.>.'.'.V Y >.V Y Y ` >.` ` '.~.{.].^.",
"/.(.. L '.U _.:.>.V >.>.V >.` I <.U [.G G J G V J Y J H J Z ` ` ` V U G Y G I I Z J Z ` Z ` }.$.|.1.",
"-.b 2.U '.` >.'.'.>.>.W W V Y ,.>.:.V '.'.V >.Y 3.K ,.,.K N H J G 4.5.H L ,.,.,.Z 3.` ` ,.W '.6.7.g ",
". 8.9.0.V >.>.,.>.'.'.V Y J !.G G ,.` ,.J V G ,.V J G Y V V >.V G W Y J G ,.J Y W >.>.>.V >.'.$.a.b.",
"  c.d.e.>.J G I Z Y :.J Y >.V V Y Z Z Z V >.>.>.W J J V >.'.>.V V G Y W V >.>.:.:.:.>.>.W >.>.$.f.g ",
"-.c.g.h.` V N W i.i.j.[.:.k.W I H Z ,.Z >.U >.V >.V G G ` W 4.W 3.V :.>.>.>.W W G Y Y >.>.>.>.l.m.n.",
"-.b g.[.o.` ,.[.J N Y ,.:.>.Y V W G G U W W p.>.W G V '.` Z Y Y ` ` '.'.W '.'.V G G 3.>.V ` '.V 0 7 ",
". b q.J >.V >.>.G :.G V V Y W Y V U Z ).!.Y G '.G p.>.Z Y Y ` '.'.>.k.,.V ` ` p.U Y >.3.Z V >.V r.s.",
"/.a 2.t.'.>.` W G W p.V ` V G J J G G p.W G p.` ` '.Z G ,.'.'.` >.p.W V >.>.Z G V >.>.G W >.>.Z & u.",
"v.(.2.I '.W W Z 3.W G V G J !.` V _.>.>.` '.>.Y V V ,.` '.'.V ` '.` >.'.'.` ` V Y >.'.:.'.>.'.W w.x.",
"y.(.z.N '.,.V U W Y G G >.>.>.` :.` '.'.'.>.W Y V ,.>.>.V ,.>.W Y >.` ` ` ` Y V >.>.W Z :.>.>.V A.B.",
". b E !.>.).J Y ` Y '.'.>.` W G [.>.'.>.V >.V W Y '.Y >.V >.Y >.'.:.` ,.W >.k.J V ` J ,.'.Z ` V m.C.",
"-.a + Y >.V Y >.>.W [.3.W Y Z V p.>.>.'.>.>.Y '.'.V >.Z Y Y W '.V >.` W '.>.W >.Y W W Y V G V D.- E.",
"  b F.G ` G Z ` G K Z W Y Y V Y [.` '.W W V '.'.'.>.G W W G G ,.V >.>.'.'.'.` _.G W >.` V Y Y V G.H.",
"I.-.J.I W Y Y Z W V p.I ,.V :.Y >.Y p.'.'.'.>.>.W Z '.'.W ` >.` '.>.'.>.>.` G Y p.>.V V Y Y ,.J K.L.",
"I.. M.J ` V ,.>.` U U Y ` V G J W V '.` V >.Y >.` '.>.>.'.'.'.'.'.'.'.'.` V >.'.'.'.>.'.>.>.'.,.N.O.",
"P.Q.R.J '.Y ,.L G Y >.W Y W Y >.Y W :.Y Z >.>.Y V Y Y >.>.>.>.>.W 3.G >.` ` Y V p.'.'.>.>.>.'.J = f.",
"/.S.T.I '.W M Y >.3.,.` '.'.` Y Y Y 3.W ` V V Y V G G V >.'.V Y ,.W ` G Z J J G V Y I K U I '.Z e n ",
"U.V.W.G '.Y Z ` G W >.>.V >.Z >.>.J ` ` V Y V Y Y ` '.>.>.>.'.'.'.'.>.>.Z V Z Y W ,.G ,.V K '.X.} Y.",
"/./.Z.I k.W p.` o.Y V W V Y >.V G V V Y G Y Y >.>.'.>.Y W '.'.>.V >.` ,.V '.>.V Y L V W J G '.`. +.+",
"U.b ++G 3.Y '.>.>.'.V J V ` Y ,.5.U Y V >.,.>.Y V >.>.>.>.` V ` >.'.>.'.>.` W '.G V ,.I ,.J '.@+B #+",
"E 2.$+G V J Y Z G i.<.t.L G G ,.,.%+Y G Z Y >.V >.V >.Y G Y >.'.'.>.V :.Z Y ` >.V Y V ` Y Y '.&+| *+",
"=+. -+I <.U W G ,.Y :.V W V >.` >.>.>.>.V >.'.'.'.>.V >.>.W V V ,.V ` >.>.>.>.'.>.'.'.J G W ;+>+r.Y.",
",+-+c.'+I I )+0.H H I t.t.L I J Y U <.J G G Y J Y L Y J G <.J Y I K G U ,.M ` V ,.Z V V U i.!+~+m.{+",
",+]+^+v.2.y.T.W.b v.b b W.W./+(+_+:+<+b [+}+  |+1+b 1+R.T.2+3+4+5+U.6+/+7+8.b /.d.q.8+3+9+9+0+a+b+c+",
",+d+a+6+2.e+f+g+U.f+V.h+i+i+j+V.d.k+a+1+l+y.6+.   /.. a 2.j+g.2.m+b b a n+c.a g.g.b b a b b a b o+p+",
",+,+,+,+,+q+r+6+V.r+v.V.V.V.s+P.S.s+E E e+e+  /.-.E E   (.-.. /.t+. (.. . . (.E -.  E E U.V.  . -.. "};
